PathFileType  4	(X/Y/Z) C:\Users\antoi\Documents\MyRepositories\mobilecap\ResultsAnalysis
DataRate	CameraRate	NumFrames	NumMarkers	Units	OrigDataRate	OrigDataStartFrame	OrigNumFrames
100.0	100.0	4	51	mm	100.0	357	1424
Frame#	Time	r_knee			r_shank_antsup			r_ankle			r_calc			r_5meta			r_toe			L_knee			L_shank_antsup			L_ankle			L_calc			L_5meta			L_toe			r_sh2			r_sh3			r_sh4			L_sh2			L_sh3			r_thigh1			r_thigh2			r_thigh3			r_thigh4			r_thigh5			L_thigh1			L_thigh2			L_thigh3			L_thigh4			r.ASIS			r.PSIS			L.ASIS			L.PSIS			C7			R_Shoulder			L_Shoulder			R_Sternum			L_Sternum			R_humerus			R_elbow_med			R_elbow_lat			R_forearm			R_wrist_radius			R_wrist_ulna			L_humerus			L_elbow_med			L_elbow_lat			L_forearm			L_wrist_radius			L_wrist_ulna			R_HJC			L_HJC			R_HJC_reg			L_HJC_reg			
		X1	Y1	Z1	X2	Y2	Z2	X3	Y3	Z3	X4	Y4	Z4	X5	Y5	Z5	X6	Y6	Z6	X7	Y7	Z7	X8	Y8	Z8	X9	Y9	Z9	X10	Y10	Z10	X11	Y11	Z11	X12	Y12	Z12	X13	Y13	Z13	X14	Y14	Z14	X15	Y15	Z15	X16	Y16	Z16	X17	Y17	Z17	X18	Y18	Z18	X19	Y19	Z19	X20	Y20	Z20	X21	Y21	Z21	X22	Y22	Z22	X23	Y23	Z23	X24	Y24	Z24	X25	Y25	Z25	X26	Y26	Z26	X27	Y27	Z27	X28	Y28	Z28	X29	Y29	Z29	X30	Y30	Z30	X31	Y31	Z31	X32	Y32	Z32	X33	Y33	Z33	X34	Y34	Z34	X35	Y35	Z35	X36	Y36	Z36	X37	Y37	Z37	X38	Y38	Z38	X39	Y39	Z39	X40	Y40	Z40	X41	Y41	Z41	X42	Y42	Z42	X43	Y43	Z43	X44	Y44	Z44	X45	Y45	Z45	X46	Y46	Z46	X47	Y47	Z47	X48	Y48	Z48	X49	Y49	Z49	X50	Y50	Z50	X51	Y51	Z51	

357	3.56000000	-225.33439	468.04133	-430.03736	-169.41944	400.40303	-433.69509	-329.50552	99.08820	-429.94154	-398.06297	61.64932	-470.49918	-234.14352	47.24633	-382.65112	-182.28367	73.20015	-433.27304	-235.12441	462.74801	-927.13321	-183.79826	379.22841	-938.51007	-322.69076	99.14967	-906.21936	-391.99727	62.61504	-861.21256	-220.08158	43.27037	-953.92488	-176.79351	65.58483	-900.16721	-225.19140	300.61981	-410.79288	-241.05143	434.61394	-413.80141	-291.22045	332.93452	-407.72414	-268.49449	409.42528	-937.17469	-300.39802	290.27469	-941.30872	-525.58813	557.29949	-485.33025	-416.21534	545.78709	-465.42871	-406.72163	487.99406	-430.04737	-545.07299	449.75288	-459.71540	-428.60947	436.62992	-441.43360	-501.73184	516.58062	-916.66065	-364.39148	516.16293	-923.65499	-500.54925	403.09742	-883.22838	-361.48351	410.37712	-902.71908	-518.99680	577.51122	-557.75339	-704.43077	601.16100	-634.36641	-523.05185	568.85391	-812.68372	-714.04796	604.17227	-726.89441	-598.30032	1005.05374	-693.91752	-507.86888	981.54199	-525.84620	-528.13842	976.22221	-865.19216	-461.89055	957.21505	-677.17112	-458.53648	953.90381	-714.16128	-497.40277	868.10883	-440.68518	-500.91598	645.62142	-444.25384	-479.30794	679.60514	-375.22916	-365.84885	731.87966	-434.81684	-264.63194	775.13472	-504.53819	-244.08309	746.70888	-500.59975	-505.45229	873.94437	-933.94175	-467.82957	637.10218	-910.66861	-457.39807	679.88045	-984.57006	-376.20300	734.92277	-933.84297	-259.01837	793.44866	-864.99782	-237.42821	769.75807	-878.72120	-585.98233	491.74537	-580.23085	-593.25661	490.21755	-786.56778	-576.86323	489.85388	-590.09925	-594.26092	495.30047	-757.48180	
358	3.57000000	-225.65072	468.15744	-429.84390	-169.73140	400.51514	-433.52257	-329.59901	99.13189	-429.93327	-398.09964	61.68186	-470.33877	-234.15115	47.26150	-382.92531	-182.39172	73.57713	-433.16997	-235.24044	462.79417	-927.08240	-183.89115	379.24440	-938.50934	-322.80411	99.25195	-906.38859	-392.03635	62.41939	-861.07701	-220.15345	43.39227	-953.89693	-176.88771	65.87206	-900.20779	-225.51440	300.74615	-410.63509	-241.50566	434.64971	-413.69612	-291.87062	334.03362	-407.34470	-268.67370	409.47514	-937.04784	-300.67648	290.20078	-940.93280	-526.19409	557.89910	-484.93647	-416.49853	545.92349	-465.12151	-407.03054	488.02306	-429.93294	-545.45334	450.11444	-459.71845	-428.98757	436.79975	-441.26647	-501.76230	516.55068	-916.66938	-364.45977	516.13069	-923.63690	-500.69195	403.20584	-883.50027	-361.59967	410.35433	-902.71664	-518.64945	577.29767	-557.86536	-703.97937	601.61411	-634.46831	-522.40449	569.10773	-812.44070	-713.51186	604.66932	-726.99340	-595.59696	1004.84192	-693.56845	-504.73029	980.73610	-525.98229	-525.49774	975.89808	-864.92462	-459.30801	956.62630	-676.83777	-455.98331	953.25546	-713.83116	-494.96241	867.75388	-440.41130	-498.96041	645.23452	-443.88153	-477.14824	679.12630	-374.74883	-363.67198	731.16047	-434.41690	-262.35573	774.24341	-504.13215	-241.81307	745.86851	-499.89661	-503.11106	873.63257	-933.55662	-465.39831	637.06064	-909.86333	-455.18621	679.61212	-984.52141	-373.97898	734.49484	-933.64305	-256.68977	792.64865	-864.24168	-235.11038	769.04416	-878.16498	-585.83542	491.76228	-580.36594	-592.87376	490.57597	-786.71362	-576.75141	490.17855	-590.20617	-593.97250	495.69713	-757.35518	
359	3.58000000	-225.92816	468.24336	-429.66416	-169.99569	400.63690	-433.30987	-329.74611	99.12416	-429.95341	-398.11888	61.74692	-470.15908	-234.19115	47.36917	-383.06660	-182.48501	73.87558	-433.15301	-235.35631	462.78161	-926.99677	-183.98405	379.25784	-938.51066	-322.90990	99.29698	-906.47821	-392.09145	62.31441	-861.00862	-220.22733	43.51630	-953.88872	-176.94379	66.12604	-900.19324	-225.76264	300.80750	-410.43373	-241.74428	434.72006	-413.43307	-291.93602	334.32098	-407.10378	-268.76568	409.52050	-936.91626	-300.85661	290.18580	-940.71629	-526.95179	558.77746	-484.31155	-416.73864	546.02407	-464.90384	-407.27554	488.19270	-429.63392	-545.80613	450.47694	-459.61577	-429.36299	436.95911	-441.11043	-501.80114	516.52709	-916.71565	-364.52424	516.08576	-923.68806	-500.82281	403.31532	-883.69400	-361.69856	410.32691	-902.72191	-518.49499	577.38207	-557.47653	-703.46399	602.02841	-634.54128	-521.87580	569.10664	-811.87523	-712.84253	605.22656	-727.02903	-592.58881	1004.57671	-693.18677	-501.59145	980.02432	-525.74377	-522.54269	975.57232	-864.61893	-456.44980	955.91223	-676.35831	-453.26478	952.37596	-713.14454	-492.11464	867.11886	-440.12241	-496.73752	644.75697	-443.32496	-474.69344	678.45389	-374.36631	-361.14931	730.33934	-433.90402	-259.78831	773.32004	-503.70141	-239.26029	744.95548	-499.31595	-500.36642	873.40262	-933.41628	-462.91787	636.90590	-909.47945	-452.63702	679.24868	-984.24606	-371.41932	733.97168	-933.49027	-254.00990	791.89061	-863.64077	-232.48406	768.25652	-877.49318	-585.83542	491.98301	-580.06530	-592.43109	490.75437	-786.42688	-576.62194	490.20708	-589.99841	-593.56119	495.98374	-757.04923	
360	3.59000000	-226.13249	468.29328	-429.44944	-170.25003	400.76312	-433.08061	-329.92639	99.06747	-430.02116	-398.14775	61.77082	-470.00975	-234.26133	47.44672	-383.21107	-182.57568	74.08288	-433.24576	-235.43980	462.79587	-926.97606	-184.06887	379.26111	-938.48441	-323.00405	99.30886	-906.57312	-392.14836	62.28981	-861.03018	-220.30153	43.62535	-953.87233	-176.97343	66.34346	-900.14122	-225.98053	300.79065	-410.31927	-241.88390	434.71283	-413.17081	-291.93139	334.27674	-406.95897	-268.74593	409.57794	-936.80201	-300.95711	290.23728	-940.66962	-527.38324	559.41473	-483.78510	-416.92049	546.09033	-464.77384	-407.52109	488.40921	-429.21858	-546.06222	450.75823	-459.50115	-429.68419	437.02653	-441.01748	-501.78015	516.49215	-916.82864	-364.58208	516.02153	-923.78881	-500.92430	403.39393	-883.75630	-361.77775	410.28997	-902.71985	-518.34916	577.48701	-556.93991	-702.83195	602.49209	-634.71428	-521.25994	569.15075	-811.70835	-712.03458	605.82389	-727.06463	-589.30279	1004.22703	-692.69496	-498.43946	979.39614	-525.10244	-519.24223	975.18134	-864.19616	-453.32396	955.12010	-676.02570	-450.18595	951.55709	-712.53629	-489.06508	866.45558	-439.57124	-493.93791	644.08877	-442.83034	-471.89599	677.61851	-374.06045	-358.26941	729.42633	-433.36366	-256.86104	772.31955	-503.20984	-236.30865	743.96417	-498.80555	-497.28951	873.15085	-933.25176	-460.37344	636.46878	-909.66860	-449.75558	678.92834	-984.02250	-368.48017	733.38441	-933.22596	-251.01762	791.12884	-863.15339	-229.50647	767.42522	-876.97462	-585.76391	492.22065	-579.87146	-591.91802	490.98878	-786.24676	-576.46632	490.12045	-589.74340	-593.13851	496.15700	-757.05491	
